<svg width="1921" height="721" viewBox="0 0 1921 721" fill="none" xmlns="http://www.w3.org/2000/svg">
<path d="M303.334 423.714C150.8 403.447 38.0003 258.825 0.666992 189.047V445.047H267.334L303.334 423.714Z" fill="#24862F"/>
<path d="M1001 55.7135C830.333 165.047 797 215.713 578.333 339.713L675.667 355.714C929.889 281.047 1425.8 120.78 1375.67 77.0468C1313 22.3801 1171.67 -53.6199 1001 55.7135Z" fill="#FF6A60"/>
<path d="M1921 77.0469C1878.33 134.38 1718.33 283.714 1541 219.714L1650.33 299.714L1921 246.38V77.0469Z" fill="#74499A"/>
<path d="M589.516 333.938C317.893 469.883 203.386 448.559 1 288.624V720.448H1921V164.448C1849.99 196.435 1657.37 371.823 1454.98 145.781C1202 -136.77 861.139 197.994 589.516 333.938Z" fill="url(#paint0_linear)"/>
<defs>
<linearGradient id="paint0_linear" x1="961" y1="35.7134" x2="961" y2="720.448" gradientUnits="userSpaceOnUse">
<stop stop-color="#FDBE00"/>
<stop offset="1" stop-color="#FCE501"/>
</linearGradient>
</defs>
</svg>
