<svg width="1440" height="1530" viewBox="0 0 1440 1530" fill="none" xmlns="http://www.w3.org/2000/svg">
<path d="M1248 40C1138 75 1050 132 940 240L1440 124V0C1412.67 1.66667 1336 12 1248 40Z" fill="#24862F"/>
<path fill-rule="evenodd" clip-rule="evenodd" d="M0 1530H1440V98.8219C1397.62 79.773 1276.04 57.4996 1118.16 117.175C1041.44 146.173 983.898 197.553 934.965 241.246C856.838 311.006 800.658 361.17 723.422 269.358C605.77 129.502 439.331 245.861 291.77 349.022L291.768 349.024C281.786 356.002 271.89 362.92 262.102 369.694C124.858 464.679 64.014 438.591 17.1157 418.482C11.2321 415.959 5.56796 413.53 0 411.447V1530Z" fill="url(#paint0_linear)"/>
<rect y="1146" width="1440" height="384" fill="url(#paint1_linear)"/>
<defs>
<linearGradient id="paint0_linear" x1="891.509" y1="1645.26" x2="593.838" y2="200.606" gradientUnits="userSpaceOnUse">
<stop stop-color="#FCE501"/>
<stop offset="1" stop-color="#FDBE00"/>
</linearGradient>
<linearGradient id="paint1_linear" x1="720" y1="1146" x2="720" y2="1530" gradientUnits="userSpaceOnUse">
<stop stop-color="#FCE501" stop-opacity="0"/>
<stop offset="1" stop-color="#FCE501"/>
</linearGradient>
</defs>
</svg>
